HIERARCHY
ROOT Hips
{
    OFFSET   0.000000   0.000000   0.000000
    CHANNELS 6 Xposition Yposition Zposition Zrotation Xrotation Yrotation
    JOINT Chest
    {
        OFFSET   0.000000   8.007240   0.000000
        CHANNELS 3 Zrotation Xrotation Yrotation
        JOINT Chest2
        {
            OFFSET   0.000000  22.077100   0.000000
            CHANNELS 3 Zrotation Xrotation Yrotation
            JOINT Neck
            {
                OFFSET   0.000000  23.254800   0.000000
                CHANNELS 3 Zrotation Xrotation Yrotation
                JOINT Head
                {
                    OFFSET   0.000000  14.370000   1.956600
                    CHANNELS 3 Zrotation Xrotation Yrotation
                    End Site
                    {
                        OFFSET   0.000000  19.566000   0.000000
                    }
                }
            }
            JOINT LeftCollar
            {
                OFFSET   3.911900  19.017000  -0.467064
                CHANNELS 3 Zrotation Xrotation Yrotation
                JOINT LeftShoulder
                {
                    OFFSET  10.383700   0.000000   0.000000
                    CHANNELS 3 Zrotation Xrotation Yrotation
                    JOINT LeftElbow
                    {
                        OFFSET  26.662100   0.001476   0.000517
                        CHANNELS 3 Zrotation Xrotation Yrotation
                        JOINT LeftWrist
                        {
                            OFFSET  28.869000  -0.000025  -0.000106
                            CHANNELS 3 Zrotation Xrotation Yrotation
                            JOINT LeftFinger0
                            {
                                OFFSET   2.044660  -2.323460   3.252850
                                CHANNELS 3 Zrotation Xrotation Yrotation
                                JOINT LeftFinger01
                                {
                                    OFFSET   3.088130   0.000000   0.000000
                                    CHANNELS 3 Zrotation Xrotation Yrotation
                                    JOINT LeftFinger02
                                    {
                                        OFFSET   2.639460   0.000000   0.000000
                                        CHANNELS 3 Zrotation Xrotation Yrotation
                                        End Site
                                        {
                                            OFFSET   2.582190   0.000000   0.000000
                                        }
                                    }
                                }
                            }
                            JOINT LeftFinger1
                            {
                                OFFSET   8.364480   0.000000   3.252850
                                CHANNELS 3 Zrotation Xrotation Yrotation
                                JOINT LeftFinger11
                                {
                                    OFFSET   4.646930   0.000000   0.000000
                                    CHANNELS 3 Zrotation Xrotation Yrotation
                                    JOINT LeftFinger12
                                    {
                                        OFFSET   2.323460   0.000000   0.000000
                                        CHANNELS 3 Zrotation Xrotation Yrotation
                                        End Site
                                        {
                                            OFFSET   2.273050   0.000000   0.000000
                                        }
                                    }
                                }
                            }
                            JOINT LeftFinger2
                            {
                                OFFSET   8.364490   0.000015   1.078090
                                CHANNELS 3 Zrotation Xrotation Yrotation
                                JOINT LeftFinger21
                                {
                                    OFFSET   5.111620   0.000000   0.000000
                                    CHANNELS 3 Zrotation Xrotation Yrotation
                                    JOINT LeftFinger22
                                    {
                                        OFFSET   2.788160   0.000016   0.000000
                                        CHANNELS 3 Zrotation Xrotation Yrotation
                                        End Site
                                        {
                                            OFFSET   2.727660   0.000000   0.000000
                                        }
                                    }
                                }
                            }
                            JOINT LeftFinger3
                            {
                                OFFSET   7.899780   0.000017  -1.078090
                                CHANNELS 3 Zrotation Xrotation Yrotation
                                JOINT LeftFinger31
                                {
                                    OFFSET   4.646930   0.000000   0.000000
                                    CHANNELS 3 Zrotation Xrotation Yrotation
                                    JOINT LeftFinger32
                                    {
                                        OFFSET   2.323470   0.000000   0.000000
                                        CHANNELS 3 Zrotation Xrotation Yrotation
                                        End Site
                                        {
                                            OFFSET   2.273050   0.000000   0.000000
                                        }
                                    }
                                }
                            }
                            JOINT LeftFinger4
                            {
                                OFFSET   7.435090   0.000000  -3.252850
                                CHANNELS 3 Zrotation Xrotation Yrotation
                                JOINT LeftFinger41
                                {
                                    OFFSET   3.717550   0.000000   0.000000
                                    CHANNELS 3 Zrotation Xrotation Yrotation
                                    JOINT LeftFinger42
                                    {
                                        OFFSET   1.858770   0.000000   0.000000
                                        CHANNELS 3 Zrotation Xrotation Yrotation
                                        End Site
                                        {
                                            OFFSET   1.818440   0.000000   0.000000
                                        }
                                    }
                                }
                            }
                        }
                    }
                }
            }
            JOINT RightCollar
            {
                OFFSET  -3.911900  19.017000  -0.467063
                CHANNELS 3 Zrotation Xrotation Yrotation
                JOINT RightShoulder
                {
                    OFFSET -10.383700   0.000019   0.000000
                    CHANNELS 3 Zrotation Xrotation Yrotation
                    JOINT RightElbow
                    {
                        OFFSET -26.662100   0.001175   0.000102
                        CHANNELS 3 Zrotation Xrotation Yrotation
                        JOINT RightWrist
                        {
                            OFFSET -28.869000   0.000016  -0.000079
                            CHANNELS 3 Zrotation Xrotation Yrotation
                            JOINT RightFinger0
                            {
                                OFFSET  -2.044660  -2.323490   3.252850
                                CHANNELS 3 Zrotation Xrotation Yrotation
                                JOINT RightFinger01
                                {
                                    OFFSET  -3.088140   0.000000   0.000000
                                    CHANNELS 3 Zrotation Xrotation Yrotation
                                    JOINT RightFinger02
                                    {
                                        OFFSET  -2.639460   0.000000   0.000000
                                        CHANNELS 3 Zrotation Xrotation Yrotation
                                        End Site
                                        {
                                            OFFSET  -2.582190   0.000000   0.000000
                                        }
                                    }
                                }
                            }
                            JOINT RightFinger1
                            {
                                OFFSET  -8.364480   0.000000   3.252850
                                CHANNELS 3 Zrotation Xrotation Yrotation
                                JOINT RightFinger11
                                {
                                    OFFSET  -4.646930   0.000000   0.000000
                                    CHANNELS 3 Zrotation Xrotation Yrotation
                                    JOINT RightFinger12
                                    {
                                        OFFSET  -2.323470   0.000000   0.000000
                                        CHANNELS 3 Zrotation Xrotation Yrotation
                                        End Site
                                        {
                                            OFFSET  -2.273050   0.000000   0.000000
                                        }
                                    }
                                }
                            }
                            JOINT RightFinger2
                            {
                                OFFSET  -8.364480   0.000000   1.078090
                                CHANNELS 3 Zrotation Xrotation Yrotation
                                JOINT RightFinger21
                                {
                                    OFFSET  -5.111620   0.000000   0.000000
                                    CHANNELS 3 Zrotation Xrotation Yrotation
                                    JOINT RightFinger22
                                    {
                                        OFFSET  -2.788160   0.000000   0.000000
                                        CHANNELS 3 Zrotation Xrotation Yrotation
                                        End Site
                                        {
                                            OFFSET  -2.727660   0.000000   0.000000
                                        }
                                    }
                                }
                            }
                            JOINT RightFinger3
                            {
                                OFFSET  -7.899780   0.000000  -1.078090
                                CHANNELS 3 Zrotation Xrotation Yrotation
                                JOINT RightFinger31
                                {
                                    OFFSET  -4.646930   0.000000   0.000000
                                    CHANNELS 3 Zrotation Xrotation Yrotation
                                    JOINT RightFinger32
                                    {
                                        OFFSET  -2.323470   0.000000   0.000000
                                        CHANNELS 3 Zrotation Xrotation Yrotation
                                        End Site
                                        {
                                            OFFSET  -2.273050   0.000000   0.000000
                                        }
                                    }
                                }
                            }
                            JOINT RightFinger4
                            {
                                OFFSET  -7.435090   0.000000  -3.252850
                                CHANNELS 3 Zrotation Xrotation Yrotation
                                JOINT RightFinger41
                                {
                                    OFFSET  -3.717550   0.000000   0.000000
                                    CHANNELS 3 Zrotation Xrotation Yrotation
                                    JOINT RightFinger42
                                    {
                                        OFFSET  -1.858770   0.000000   0.000000
                                        CHANNELS 3 Zrotation Xrotation Yrotation
                                        End Site
                                        {
                                            OFFSET  -1.818440   0.000000   0.000000
                                        }
                                    }
                                }
                            }
                        }
                    }
                }
            }
        }
    }
    JOINT LeftHip
    {
        OFFSET   9.783040   0.000000   0.000000
        CHANNELS 3 Zrotation Xrotation Yrotation
        JOINT LeftKnee
        {
            OFFSET   0.000032 -41.789100  -0.002222
            CHANNELS 3 Zrotation Xrotation Yrotation
            JOINT LeftAnkle
            {
                OFFSET   0.000087 -41.133200  -0.000135
                CHANNELS 3 Zrotation Xrotation Yrotation
                JOINT LeftToe
                {
                    OFFSET   0.000000  -6.358960  14.674500
                    CHANNELS 3 Zrotation Xrotation Yrotation
                    End Site
                    {
                        OFFSET   0.000000   0.000000   3.913200
                    }
                }
            }
        }
    }
    JOINT RightHip
    {
        OFFSET  -9.783040   0.000000   0.000000
        CHANNELS 3 Zrotation Xrotation Yrotation
        JOINT RightKnee
        {
            OFFSET   0.000047 -41.789100  -0.000896
            CHANNELS 3 Zrotation Xrotation Yrotation
            JOINT RightAnkle
            {
                OFFSET  -0.000117 -41.133300  -0.000248
                CHANNELS 3 Zrotation Xrotation Yrotation
                JOINT RightToe
                {
                    OFFSET   0.000000  -6.358970  14.674500
                    CHANNELS 3 Zrotation Xrotation Yrotation
                    End Site
                    {
                        OFFSET   0.000000   0.000000   3.913200
                    }
                }
            }
        }
    }
}
MOTION
Frames: 4
Frame Time:   0.016667
-11.451300  88.338500  -5.717130  -3.326320 -20.506000  -0.290726   1.650530   7.211420   0.752554   3.243700  14.441200   1.309260   2.332360  -0.593711   0.024165   3.832950  -1.197770   5.233960   2.047910  -7.608810  -8.709380 -54.255800 -44.872700 -107.866000  10.776100 -29.436200 -16.724900   9.698690  -0.853967 -13.090700  47.258600  53.875700 -90.686200 -42.978900   0.005766   0.011284 -18.459400   0.003531   0.010753 -88.995900   5.005300  -0.090924 -80.428600  -0.001762  -0.000494 -60.321500   0.000967  -0.008130 -88.444200   0.000180  -0.001777 -88.444200   0.000962   0.000164 -66.333200  -0.000265  -0.004836 -88.996700  -5.000850   0.088195 -91.150300  -0.000479  -0.001578 -68.362700   0.001188  -0.002818 -88.983800  -9.998850   0.180895 -110.001000  -0.003936   0.005032 -80.000000  -0.006009  -0.002975  -6.140510 -12.332600   3.150790  18.862000 -42.472400  77.982900 -19.390500  -0.633802  15.038700 -17.024500  -6.320180  12.442200 -34.365100  37.584500  74.879800  43.325600  -0.003823   0.002791  17.917200  -0.000255   0.003578  88.995800   4.999130   0.092499  87.908100  -0.004103   0.009381  65.931100   0.001214  -0.000876  89.000000   0.002121  -0.000440  96.526600   0.001582   0.001596  72.394900   0.008111   0.002655  88.992800  -4.999170  -0.085717  96.251600   0.001048  -0.005160  72.188800   0.000194  -0.005545  88.985100  -9.996320  -0.173575 110.000000  -0.004265  -0.001302  80.000000   0.007622   0.000530  10.546500  14.842600   3.718820   4.299430  16.611300  12.329600 -13.352600  -7.802280   1.384880  -0.000000   0.000000  -0.000000   9.412910  16.076800  -2.417350   0.943608   7.736130 -14.718200  -6.207440  -5.542250  -3.336140   0.000000   0.000000   0.000000
-11.481900  88.330100  -5.762910  -3.363750 -20.544100  -0.344309   1.653690   7.230120   0.757847   3.249350  14.478800   1.319080   2.315280  -0.723840   0.029221   3.805070  -1.460570   5.106820   2.051310  -7.706380  -8.879100 -54.240700 -44.998700 -107.815000  10.913400 -29.423200 -16.274400   9.693700  -1.144790 -13.054400  47.415100  53.938200 -90.867900 -42.878500   0.005702   0.011510 -18.359700   0.003526   0.010967 -88.995900   5.005300  -0.091070 -80.448300  -0.001900  -0.000535 -60.336300   0.000919  -0.008296 -88.485300   0.000167  -0.001696 -88.485300   0.000871   0.000152 -66.364000  -0.000178  -0.005039 -88.996600  -5.000860   0.088269 -91.177600  -0.000591  -0.001608 -68.383100   0.001234  -0.002983 -88.983800  -9.998810   0.180939 -110.001000  -0.003930   0.005053 -80.000000  -0.006079  -0.002966  -6.158730 -12.388100   3.108690  18.716800 -42.161500  77.979700 -19.196800  -0.518542  14.529200 -17.263300  -6.354670  12.102300 -34.430500  37.665100  74.979200  43.209500  -0.003871   0.002798  17.820000  -0.000432   0.003592  88.995800   4.999120   0.092555  87.755300  -0.004100   0.009487  65.816500   0.001220  -0.000674  89.000000   0.001995  -0.000421  96.310400   0.001604   0.001475  72.232700   0.008150   0.002635  88.992700  -4.999170  -0.085838  96.494500   0.001086  -0.005286  72.371000   0.000126  -0.005407  88.985100  -9.996310  -0.173546 110.000000  -0.004297  -0.001206  80.000000   0.007720   0.000514  10.612600  14.770100   3.691710   4.283910  16.801800  12.296500 -13.375800  -7.865930   1.449940   0.000000   0.000000  -0.000000   9.438710  16.143300  -2.471830   0.954293   7.648390 -14.701900  -6.193690  -5.506630  -3.227490  -0.000000   0.000000   0.000000
-11.512000  88.320600  -5.813430  -3.421710 -20.591300  -0.451123   1.660230   7.274250   0.777341   3.259920  14.567700   1.356520   2.299930  -0.866358   0.034756   3.780270  -1.748310   4.980480   2.036920  -7.847440  -9.051990 -54.238600 -45.117100 -107.779000  11.043600 -29.440000 -15.846000   9.699190  -1.327430 -13.026700  47.708800  54.053900 -91.161800 -42.781300   0.005641   0.011725 -18.264900   0.003522   0.011175 -88.995900   5.005300  -0.091213 -80.468000  -0.002039  -0.000577 -60.351100   0.000874  -0.008463 -88.527300   0.000154  -0.001620 -88.527300   0.000782   0.000140 -66.395500  -0.000086  -0.005244 -88.996500  -5.000880   0.088340 -91.204800  -0.000703  -0.001643 -68.403600   0.001280  -0.003148 -88.983800  -9.998780   0.180980 -110.001000  -0.003926   0.005075 -80.000000  -0.006147  -0.002956  -6.160120 -12.458300   3.093050  18.604000 -41.870800  77.990300 -19.023300  -0.411248  14.072400 -17.477700  -6.371520  11.781900 -34.517400  37.778500  75.112600  43.083900  -0.003916   0.002804  17.696100  -0.000607   0.003607  88.995800   4.999120   0.092608  87.576700  -0.004091   0.009598  65.682500   0.001225  -0.000473  89.000000   0.001868  -0.000387  96.083200   0.001615   0.001361  72.062300   0.008188   0.002617  88.992600  -4.999170  -0.085951  96.751300   0.001122  -0.005411  72.563600   0.000058  -0.005269  88.985100  -9.996310  -0.173517 110.000000  -0.004327  -0.001113  80.000000   0.007821   0.000499  10.681100  14.710200   3.665670   4.263640  17.008100  12.272400 -13.393300  -7.943760   1.535350  -0.000000   0.000000   0.000000   9.463970  16.207000  -2.502030   0.970472   7.584900 -14.697500  -6.171820  -5.481120  -3.103330  -0.000000   0.000000  -0.000000
-11.542100  88.308700  -5.867330  -3.493270 -20.638700  -0.591634   1.667820   7.338650   0.812997   3.270370  14.697500   1.426030   2.293080  -1.032830   0.041351   3.770080  -2.084160   4.873930   2.001270  -8.040610  -9.191960 -54.227900 -45.217100 -107.763000  11.171000 -29.430000 -15.445900   9.760200  -1.320320 -12.998600  48.052900  54.206100 -91.425800 -42.741200   0.005588   0.011919 -18.235400   0.003520   0.011382 -88.995900   5.005290  -0.091350 -80.453800  -0.002177  -0.000615 -60.340400   0.000839  -0.008629 -88.528000   0.000135  -0.001551 -88.528000   0.000700   0.000122 -66.396000   0.000010  -0.005454 -88.996500  -5.000900   0.088404 -91.159300  -0.000819  -0.001693 -68.369500   0.001321  -0.003317 -88.983800  -9.998760   0.181021 -110.001000  -0.003919   0.005100 -80.000000  -0.006214  -0.002947  -6.126480 -12.566600   3.120450  18.551700 -41.640000  78.015800 -18.860100  -0.255806  13.692000 -17.641200  -6.389310  11.462400 -34.528900  37.807200  75.131700  43.018000  -0.003952   0.002810  17.642900  -0.000793   0.003616  88.995700   4.999120   0.092642  87.329000  -0.004075   0.009730  65.496800   0.001223  -0.000288  89.000000   0.001747  -0.000355  95.829200   0.001618   0.001248  71.871900   0.008227   0.002598  88.992500  -4.999170  -0.086057  96.983900   0.001167  -0.005528  72.738000  -0.000025  -0.005134  88.985100  -9.996300  -0.173500 110.000000  -0.004355  -0.001020  80.000000   0.007925   0.000489  10.754000  14.659100   3.641720   4.234410  17.233300  12.259200 -13.405000  -8.045900   1.643560  -0.000000   0.000000   0.000000   9.484420  16.255300  -2.457900   0.993230   7.556900 -14.698700  -6.132920  -5.465900  -3.003700  -0.000000   0.000000   0.000000
